<svg width="65" height="45" viewBox="0 0 65 45" fill="none" xmlns="http://www.w3.org/2000/svg">
<path d="M22.5 35C29.404 35 35 29.4036 35 22.5C35 15.5964 29.404 10 22.5 10C15.596 10 10 15.5964 10 22.5C10 29.4036 15.596 35 22.5 35Z" fill="#EC0020"/>
<path d="M42.5 35C49.404 35 55 29.4036 55 22.5C55 15.5964 49.404 10 42.5 10C35.596 10 30 15.5964 30 22.5C30 29.4036 35.596 35 42.5 35Z" fill="#FE9A0C"/>
<path fill-rule="evenodd" clip-rule="evenodd" d="M18.561 25.96H17.443L18.466 20.268H18.447L16.357 25.96H15L14.975 20.268H14.956L14.126 25.96H13L14.225 18.969H15.975L16.05 24.415H16.069L18.052 18.969H19.782L18.564 25.96H18.561ZM26.984 22.06C26.49 21.9619 25.987 21.9253 25.484 21.951C24.878 22.024 24.746 22.207 24.708 22.419C24.569 23.202 27.328 22.451 26.993 24.265C26.906 24.77 26.638 25.2262 26.24 25.5484C25.841 25.8706 25.339 26.0368 24.827 26.016C24.221 26.0607 23.613 25.9786 23.041 25.775L23.205 24.817C23.767 24.9374 24.342 24.9891 24.916 24.971C25.103 24.9887 25.291 24.9507 25.456 24.8617C25.621 24.7727 25.756 24.6367 25.844 24.471C25.996 23.645 23.244 24.271 23.577 22.423C23.667 21.9694 23.925 21.5667 24.3 21.2963C24.676 21.0258 25.139 20.9078 25.598 20.966C26.12 20.972 26.639 21.0508 27.139 21.2L26.987 22.062L26.984 22.06ZM27.616 21.829L28.026 19.982H29.144L28.904 20.907H29.6L29.43 21.828H28.73L28.238 24.497C28.187 24.79 28.175 24.897 28.629 24.897C28.708 24.8966 28.786 24.8892 28.863 24.875L28.705 25.869C28.528 25.877 28.326 26.001 28.149 26.001H28.01C27.856 26.0336 27.695 26.0224 27.547 25.9686C27.398 25.9148 27.268 25.8207 27.17 25.6967C27.072 25.5728 27.011 25.424 26.993 25.2671C26.976 25.1103 27.002 24.9516 27.07 24.809L27.613 21.825L27.616 21.829ZM30.31 23.959C30.264 24.0833 30.25 24.2172 30.27 24.3482C30.289 24.4793 30.341 24.6035 30.42 24.7095C30.5 24.8154 30.604 24.8998 30.725 24.9549C30.845 25.01 30.978 25.0341 31.11 25.025C31.806 25.0727 32.497 24.873 33.061 24.461L32.884 25.383C32.312 25.8067 31.604 26.0069 30.895 25.946C29.702 25.946 28.895 25.281 29.272 23.262C29.386 22.67 29.91 20.768 31.766 20.768C32.606 20.768 33.68 21.487 33.266 23.733L33.228 23.959H30.31ZM32.231 23C32.314 22.2 31.916 21.837 31.556 21.837C31.278 21.8909 31.025 22.0334 30.835 22.243C30.644 22.4526 30.527 22.7182 30.5 23H32.236H32.231ZM33.968 20.995H35.035L34.877 21.749H34.9C35.016 21.4805 35.201 21.2483 35.438 21.077C35.675 20.9057 35.954 20.8017 36.245 20.776C36.321 20.776 36.485 20.813 36.555 20.82L36.144 22.1C35.97 22.0733 35.792 22.0824 35.621 22.1267C35.45 22.171 35.29 22.2496 35.151 22.3576C35.012 22.4656 34.896 22.6009 34.81 22.7552C34.725 22.9095 34.672 23.0795 34.654 23.255L34.187 26.009H33.069L33.969 20.995H33.968ZM40.718 20.462C40.304 20.1978 39.803 20.1082 39.323 20.213C38.755 20.313 37.823 20.652 37.473 22.531C37.296 23.489 37.391 24.637 38.312 24.856C38.63 24.9349 38.961 24.9438 39.283 24.8819C39.605 24.8201 39.909 24.6891 40.175 24.498L39.875 25.705C39.742 25.756 39.622 26.093 38.24 26.005C36.712 25.905 35.834 24.805 36.257 22.51C36.68 20.192 38.057 18.992 39.54 19.01C39.801 19.01 40.06 19.0653 40.298 19.1723C40.536 19.2794 40.749 19.4357 40.923 19.631L40.723 20.465L40.718 20.462ZM50.796 25.962H49.7L49.813 25.207H49.8C49.652 25.4352 49.449 25.6225 49.21 25.7515C48.97 25.8805 48.702 25.947 48.43 25.945C47.167 25.945 46.876 24.658 47.122 23.306C47.438 21.606 48.422 20.767 49.358 20.767C49.6 20.7523 49.839 20.8205 50.036 20.9603C50.234 21.1002 50.378 21.3033 50.444 21.536H50.463L50.892 18.986H52.01L50.8 25.96L50.796 25.962ZM48.902 24.885C49.243 24.8339 49.555 24.6644 49.784 24.4062C50.012 24.1481 50.143 23.8177 50.152 23.473C50.297 22.683 50.247 21.886 49.483 21.886C49.134 21.9561 48.821 22.1459 48.597 22.4226C48.374 22.6992 48.254 23.0453 48.258 23.401C48.15 23.978 48.188 24.885 48.902 24.885ZM44.052 24.775C44.052 24.775 43.945 25.302 43.92 25.565L43.863 26.008H42.872C42.849 25.7512 42.849 25.4928 42.872 25.236C42.686 25.4533 42.456 25.6289 42.198 25.7511C41.939 25.8733 41.658 25.9394 41.372 25.945C41.197 25.9546 41.023 25.9202 40.865 25.8448C40.706 25.7694 40.57 25.6554 40.467 25.5135C40.365 25.3715 40.3 25.206 40.278 25.0322C40.256 24.8585 40.278 24.682 40.342 24.519C40.386 24.1245 40.561 23.756 40.838 23.4714C41.114 23.1869 41.478 23.0024 41.871 22.947L42.906 22.771C43.089 22.742 43.316 22.881 43.373 22.603C43.393 22.5149 43.391 22.4232 43.367 22.3361C43.343 22.249 43.297 22.1693 43.235 22.1041C43.172 22.0389 43.094 21.9902 43.008 21.9624C42.922 21.9347 42.831 21.9287 42.742 21.945C42.155 21.9228 41.57 22.0328 41.031 22.267L41.283 21.309C41.836 21.0406 42.452 20.9289 43.064 20.986C43.664 21.009 44.718 21.199 44.516 22.386L44.055 24.77L44.052 24.775ZM43.175 23.422C42.93 23.573 42.653 23.6635 42.366 23.686C42.154 23.6852 41.948 23.7595 41.785 23.8959C41.622 24.0322 41.513 24.2218 41.476 24.431C41.448 24.4972 41.437 24.5695 41.444 24.6411C41.451 24.7128 41.476 24.7814 41.517 24.8407C41.558 24.8999 41.614 24.9478 41.678 24.9798C41.743 25.0119 41.814 25.0271 41.886 25.024C42.163 25.0181 42.43 24.9187 42.643 24.7421C42.856 24.5655 43.004 24.3219 43.061 24.051L43.175 23.422ZM45.088 20.994H46.155L46 21.84H46.019C46.135 21.5716 46.321 21.3394 46.557 21.1681C46.794 20.9968 47.073 20.8928 47.364 20.867C47.44 20.867 47.604 20.904 47.674 20.911L47.263 22.19C47.184 22.1771 47.103 22.1721 47.023 22.175C46.87 22.1625 46.716 22.1805 46.57 22.228C46.424 22.2755 46.289 22.3516 46.173 22.4518C46.056 22.5521 45.961 22.6744 45.892 22.8118C45.824 22.9492 45.783 23.0988 45.773 23.252L45.306 26.006H44.188L45.088 20.992V20.994ZM22.788 24.775C22.788 24.775 22.681 25.302 22.655 25.565L22.599 26.009H21.6C21.578 25.7518 21.578 25.4932 21.6 25.236C21.419 25.4634 21.191 25.6499 20.933 25.7829C20.674 25.916 20.39 25.9927 20.1 26.008C19.922 26.008 19.747 25.9648 19.589 25.8822C19.431 25.7995 19.296 25.6798 19.195 25.5334C19.094 25.3869 19.03 25.2181 19.008 25.0415C18.986 24.8648 19.008 24.6855 19.071 24.519C19.115 24.1247 19.29 23.7563 19.566 23.4717C19.843 23.1872 20.206 23.0026 20.599 22.947L21.635 22.771C21.745 22.7666 21.849 22.7263 21.934 22.6564C22.018 22.5865 22.077 22.4908 22.102 22.384C22.197 21.836 21.755 21.921 21.471 21.913C20.883 21.8912 20.298 22.0012 19.759 22.235L20.012 21.277C20.565 21.0088 21.181 20.8975 21.793 20.955C22.393 20.978 23.447 21.168 23.245 22.355L22.784 24.771L22.788 24.775ZM21.91 23.422C21.666 23.5732 21.389 23.6638 21.102 23.686C20.89 23.6852 20.684 23.7595 20.521 23.8959C20.358 24.0322 20.249 24.2218 20.212 24.431C20.184 24.4972 20.173 24.5695 20.18 24.6411C20.187 24.7128 20.212 24.7814 20.253 24.8407C20.294 24.8999 20.35 24.9478 20.414 24.9798C20.479 25.0119 20.55 25.0271 20.622 25.024C20.899 25.0181 21.166 24.9187 21.379 24.7421C21.592 24.5655 21.74 24.3219 21.797 24.051L21.91 23.422Z" fill="white"/>
<path fill-rule="evenodd" clip-rule="evenodd" d="M18.561 25.96H17.443L18.466 20.268H18.447L16.357 25.96H15L14.975 20.268H14.956L14.126 25.96H13L14.225 18.969H15.975L16.05 24.415H16.069L18.052 18.969H19.782L18.564 25.96H18.561ZM26.984 22.06C26.49 21.9619 25.987 21.9253 25.484 21.951C24.878 22.024 24.746 22.207 24.708 22.419C24.569 23.202 27.328 22.451 26.993 24.265C26.906 24.77 26.638 25.2262 26.24 25.5484C25.841 25.8706 25.339 26.0368 24.827 26.016C24.221 26.0607 23.613 25.9786 23.041 25.775L23.205 24.817C23.767 24.9374 24.342 24.9891 24.916 24.971C25.103 24.9887 25.291 24.9507 25.456 24.8617C25.621 24.7727 25.756 24.6367 25.844 24.471C25.996 23.645 23.244 24.271 23.577 22.423C23.667 21.9694 23.925 21.5667 24.3 21.2963C24.676 21.0258 25.139 20.9078 25.598 20.966C26.12 20.972 26.639 21.0508 27.139 21.2L26.987 22.062L26.984 22.06ZM27.616 21.829L28.026 19.982H29.144L28.904 20.907H29.6L29.43 21.828H28.73L28.238 24.497C28.187 24.79 28.175 24.897 28.629 24.897C28.708 24.8966 28.786 24.8892 28.863 24.875L28.705 25.869C28.528 25.877 28.326 26.001 28.149 26.001H28.01C27.856 26.0336 27.695 26.0224 27.547 25.9686C27.398 25.9148 27.268 25.8207 27.17 25.6967C27.072 25.5728 27.011 25.424 26.993 25.2671C26.976 25.1103 27.002 24.9516 27.07 24.809L27.613 21.825L27.616 21.829ZM30.31 23.959C30.264 24.0833 30.25 24.2172 30.27 24.3482C30.289 24.4793 30.341 24.6035 30.42 24.7095C30.5 24.8154 30.604 24.8998 30.725 24.9549C30.845 25.01 30.978 25.0341 31.11 25.025C31.806 25.0727 32.497 24.873 33.061 24.461L32.884 25.383C32.312 25.8067 31.604 26.0069 30.895 25.946C29.702 25.946 28.895 25.281 29.272 23.262C29.386 22.67 29.91 20.768 31.766 20.768C32.606 20.768 33.68 21.487 33.266 23.733L33.228 23.959H30.31ZM32.231 23C32.314 22.2 31.916 21.837 31.556 21.837C31.278 21.8909 31.025 22.0334 30.835 22.243C30.644 22.4526 30.527 22.7182 30.5 23H32.236H32.231ZM33.968 20.995H35.035L34.877 21.749H34.9C35.016 21.4805 35.201 21.2483 35.438 21.077C35.675 20.9057 35.954 20.8017 36.245 20.776C36.321 20.776 36.485 20.813 36.555 20.82L36.144 22.1C35.97 22.0733 35.792 22.0824 35.621 22.1267C35.45 22.171 35.29 22.2496 35.151 22.3576C35.012 22.4656 34.896 22.6009 34.81 22.7552C34.725 22.9095 34.672 23.0795 34.654 23.255L34.187 26.009H33.069L33.969 20.995H33.968ZM40.718 20.462C40.304 20.1978 39.803 20.1082 39.323 20.213C38.755 20.313 37.823 20.652 37.473 22.531C37.296 23.489 37.391 24.637 38.312 24.856C38.63 24.9349 38.961 24.9438 39.283 24.8819C39.605 24.8201 39.909 24.6891 40.175 24.498L39.875 25.705C39.742 25.756 39.622 26.093 38.24 26.005C36.712 25.905 35.834 24.805 36.257 22.51C36.68 20.192 38.057 18.992 39.54 19.01C39.801 19.01 40.06 19.0653 40.298 19.1723C40.536 19.2794 40.749 19.4357 40.923 19.631L40.723 20.465L40.718 20.462ZM50.796 25.962H49.7L49.813 25.207H49.8C49.652 25.4352 49.449 25.6225 49.21 25.7515C48.97 25.8805 48.702 25.947 48.43 25.945C47.167 25.945 46.876 24.658 47.122 23.306C47.438 21.606 48.422 20.767 49.358 20.767C49.6 20.7523 49.839 20.8205 50.036 20.9603C50.234 21.1002 50.378 21.3033 50.444 21.536H50.463L50.892 18.986H52.01L50.8 25.96L50.796 25.962ZM48.902 24.885C49.243 24.8339 49.555 24.6644 49.784 24.4062C50.012 24.1481 50.143 23.8177 50.152 23.473C50.297 22.683 50.247 21.886 49.483 21.886C49.134 21.9561 48.821 22.1459 48.597 22.4226C48.374 22.6992 48.254 23.0453 48.258 23.401C48.15 23.978 48.188 24.885 48.902 24.885ZM44.052 24.775C44.052 24.775 43.945 25.302 43.92 25.565L43.863 26.008H42.872C42.849 25.7512 42.849 25.4928 42.872 25.236C42.686 25.4533 42.456 25.6289 42.198 25.7511C41.939 25.8733 41.658 25.9394 41.372 25.945C41.197 25.9546 41.023 25.9202 40.865 25.8448C40.706 25.7694 40.57 25.6554 40.467 25.5135C40.365 25.3715 40.3 25.206 40.278 25.0322C40.256 24.8585 40.278 24.682 40.342 24.519C40.386 24.1245 40.561 23.756 40.838 23.4714C41.114 23.1869 41.478 23.0024 41.871 22.947L42.906 22.771C43.089 22.742 43.316 22.881 43.373 22.603C43.393 22.5149 43.391 22.4232 43.367 22.3361C43.343 22.249 43.297 22.1693 43.235 22.1041C43.172 22.0389 43.094 21.9902 43.008 21.9624C42.922 21.9347 42.831 21.9287 42.742 21.945C42.155 21.9228 41.57 22.0328 41.031 22.267L41.283 21.309C41.836 21.0406 42.452 20.9289 43.064 20.986C43.664 21.009 44.718 21.199 44.516 22.386L44.055 24.77L44.052 24.775ZM43.175 23.422C42.93 23.573 42.653 23.6635 42.366 23.686C42.154 23.6852 41.948 23.7595 41.785 23.8959C41.622 24.0322 41.513 24.2218 41.476 24.431C41.448 24.4972 41.437 24.5695 41.444 24.6411C41.451 24.7128 41.476 24.7814 41.517 24.8407C41.558 24.8999 41.614 24.9478 41.678 24.9798C41.743 25.0119 41.814 25.0271 41.886 25.024C42.163 25.0181 42.43 24.9187 42.643 24.7421C42.856 24.5655 43.004 24.3219 43.061 24.051L43.175 23.422ZM45.088 20.994H46.155L46 21.84H46.019C46.135 21.5716 46.321 21.3394 46.557 21.1681C46.794 20.9968 47.073 20.8928 47.364 20.867C47.44 20.867 47.604 20.904 47.674 20.911L47.263 22.19C47.184 22.1771 47.103 22.1721 47.023 22.175C46.87 22.1625 46.716 22.1805 46.57 22.228C46.424 22.2755 46.289 22.3516 46.173 22.4518C46.056 22.5521 45.961 22.6744 45.892 22.8118C45.824 22.9492 45.783 23.0988 45.773 23.252L45.306 26.006H44.188L45.088 20.992V20.994ZM22.788 24.775C22.788 24.775 22.681 25.302 22.655 25.565L22.599 26.009H21.6C21.578 25.7518 21.578 25.4932 21.6 25.236C21.419 25.4634 21.191 25.6499 20.933 25.7829C20.674 25.916 20.39 25.9927 20.1 26.008C19.922 26.008 19.747 25.9648 19.589 25.8822C19.431 25.7995 19.296 25.6798 19.195 25.5334C19.094 25.3869 19.03 25.2181 19.008 25.0415C18.986 24.8648 19.008 24.6855 19.071 24.519C19.115 24.1247 19.29 23.7563 19.566 23.4717C19.843 23.1872 20.206 23.0026 20.599 22.947L21.635 22.771C21.745 22.7666 21.849 22.7263 21.934 22.6564C22.018 22.5865 22.077 22.4908 22.102 22.384C22.197 21.836 21.755 21.921 21.471 21.913C20.883 21.8912 20.298 22.0012 19.759 22.235L20.012 21.277C20.565 21.0088 21.181 20.8975 21.793 20.955C22.393 20.978 23.447 21.168 23.245 22.355L22.784 24.771L22.788 24.775ZM21.91 23.422C21.666 23.5732 21.389 23.6638 21.102 23.686C20.89 23.6852 20.684 23.7595 20.521 23.8959C20.358 24.0322 20.249 24.2218 20.212 24.431C20.184 24.4972 20.173 24.5695 20.18 24.6411C20.187 24.7128 20.212 24.7814 20.253 24.8407C20.294 24.8999 20.35 24.9478 20.414 24.9798C20.479 25.0119 20.55 25.0271 20.622 25.024C20.899 25.0181 21.166 24.9187 21.379 24.7421C21.592 24.5655 21.74 24.3219 21.797 24.051L21.91 23.422Z" fill="white"/>
<rect x="0.5" y="0.5" width="64" height="44" stroke="#EEEEEE"/>
</svg>
