<svg width="87" height="45" viewBox="0 0 87 45" fill="none" xmlns="http://www.w3.org/2000/svg">
<path fill-rule="evenodd" clip-rule="evenodd" d="M27.2667 31.0001V20.9001H26.8207L23.6207 31.0001H19.8207H19.8097L16.6207 20.9001H16.1777V31.0001H10.7207V14H16.1857C16.8667 13.997 17.5307 14.2131 18.0797 14.6165C18.6287 15.0198 19.0337 15.589 19.2347 16.24L21.4807 24.0971H21.9537L24.2037 16.24C24.4057 15.5871 24.8127 15.0166 25.3647 14.6131C25.9167 14.2096 26.5837 13.9946 27.2667 14H32.7317V31.0001H27.2667Z" fill="#52B461"/>
<path fill-rule="evenodd" clip-rule="evenodd" d="M48.1688 31V20.989H47.7379L44.0109 29.376C43.7919 29.8605 43.4378 30.2716 42.9908 30.5596C42.5428 30.8477 42.0228 31.0006 41.4908 31H36.7148V13.9999H42.2148V24.011H42.6658L46.4398 15.6109C46.4498 15.5889 46.4589 15.5679 46.4689 15.5469V15.5409C46.6969 15.0777 47.0509 14.6878 47.4899 14.4154C47.9279 14.143 48.4349 13.9991 48.9509 13.9999H53.7269V31H48.1688Z" fill="#52B461"/>
<path fill-rule="evenodd" clip-rule="evenodd" d="M69.8542 26.0079H63.3022V30.9999H57.7402V21.9999H76.2213C75.6703 23.2187 74.7723 24.2484 73.6403 24.9611C72.5083 25.6737 71.1912 26.0377 69.8542 26.0079Z" fill="#52B461"/>
<path fill-rule="evenodd" clip-rule="evenodd" d="M76.5701 20H65.9991C61.4081 20 57.5911 17.2279 56.7871 13.9999H70.3481C73.8591 13.9999 76.7041 16.4339 76.7041 19.035C76.7041 19.3613 76.6591 19.686 76.5701 20Z" fill="url(#paint0_linear_154_3746)"/>
<rect x="1.2207" y="0.5" width="84.9834" height="44" stroke="#EEEEEE"/>
<defs>
<linearGradient id="paint0_linear_154_3746" x1="17682.7" y1="590" x2="17286.2" y2="590" gradientUnits="userSpaceOnUse">
<stop stop-color="#198ECA"/>
<stop offset="1" stop-color="#1DB5E4"/>
</linearGradient>
</defs>
</svg>
